<?xml version='1.0' encoding='utf-8'?>
<svg xmlns="http://www.w3.org/2000/svg" width="88" height="107" viewBox="0 0 88 107" role="img" aria-labelledby="title desc">
  <title id="title">P&amp;ID furnace</title>
  <desc id="desc">Process-furnace symbol.</desc>
  <style id="symbol-theme" type="text/css">/* Edit these values to restyle this symbol. */
.symbol-line {
  stroke: #000000;
  stroke-width: 1;
  stroke-opacity: 1;
}
.symbol-fill {
  fill: #ffffff;
  fill-opacity: 1;
}
.symbol-solid {
  fill: #000000;
  fill-opacity: 1;
}
.symbol-text {
  fill: #000000;
  fill-opacity: 1;
}
.connection-port {
  display: none;
  fill: #ffffff;
  stroke: #2563eb;
  stroke-width: 1.5;
  pointer-events: all;
  cursor: crosshair;
}
</style>
  <g transform="translate(-742 -793)" shape-rendering="geometricPrecision">
    <g>
      <g transform="translate(0.5,0.5)">
        <rect x="746" y="797" width="80" height="99" fill="none" stroke="none" />
        <path d="M 771 797 L 801 797 L 801 831.5 L 816 841.5 L 816 896 L 806 896 L 806 886.5 L 766 886.5 L 766 896 L 756 896 L 756 841.5 L 771 831.5 Z" stroke-miterlimit="10" class="symbol-fill symbol-line" />
        <path d="M 771 831.5 L 801 831.5 M 756 841.5 L 816 841.5 M 756 886.5 L 816 886.5 M 746 851.5 L 801 851.5 L 771 876.5 L 826 876.5" fill="none" stroke-miterlimit="10" class="symbol-line" />
      </g>
    </g>
  </g>
  <g class="connection-points" data-role="connection-points" aria-hidden="true">
    <circle class="connection-port" data-connection-side="top" data-anchor-x="0.505682" data-anchor-y="0.0420561" cx="44.5" cy="4.5" r="3" />
    <circle class="connection-port" data-connection-side="right" data-anchor-x="0.960227" data-anchor-y="0.785047" cx="84.5" cy="84" r="3" />
    <circle class="connection-port" data-connection-side="bottom" data-anchor-x="0.505682" data-anchor-y="0.878505" cx="44.5" cy="94" r="3" />
    <circle class="connection-port" data-connection-side="left" data-anchor-x="0.0511364" data-anchor-y="0.551402" cx="4.5" cy="59" r="3" />
  </g>
</svg>