<?xml version='1.0' encoding='utf-8'?>
<svg xmlns="http://www.w3.org/2000/svg" width="99" height="38" viewBox="0 0 99 38" role="img" aria-labelledby="title desc">
  <title id="title">P&amp;ID drum or condenser</title>
  <desc id="desc">Horizontal drum or condenser vessel symbol.</desc>
  <style id="symbol-theme" type="text/css">/* Edit these values to restyle this symbol. */
.symbol-line {
  stroke: #000000;
  stroke-width: 1;
  stroke-opacity: 1;
}
.symbol-fill {
  fill: #ffffff;
  fill-opacity: 1;
}
.symbol-solid {
  fill: #000000;
  fill-opacity: 1;
}
.symbol-text {
  fill: #000000;
  fill-opacity: 1;
}
.connection-port {
  display: none;
  fill: #ffffff;
  stroke: #2563eb;
  stroke-width: 1.5;
  pointer-events: all;
  cursor: crosshair;
}
</style>
  <g transform="translate(-61 -689)" shape-rendering="geometricPrecision">
    <g>
      <g transform="translate(0.5,0.5)">
        <rect x="65" y="693" width="91" height="30" fill="none" stroke="none" />
        <path d="M 70.74 723 L 150.26 723 C 153.43 723 156 716.28 156 708 C 156 699.72 153.43 693 150.26 693 L 70.74 693 C 67.57 693 65 699.72 65 708 C 65 716.28 67.57 723 70.74 723 Z M 70.74 693 L 70.74 723 M 150.26 693 L 150.26 723" stroke-miterlimit="10" class="symbol-fill symbol-line" />
      </g>
    </g>
  </g>
  <g class="connection-points" data-role="connection-points" aria-hidden="true">
    <circle class="connection-port" data-connection-side="top" data-anchor-x="0.505051" data-anchor-y="0.118421" cx="50" cy="4.5" r="3" />
    <circle class="connection-port" data-connection-side="right" data-anchor-x="0.964646" data-anchor-y="0.513158" cx="95.5" cy="19.5" r="3" />
    <circle class="connection-port" data-connection-side="bottom" data-anchor-x="0.505051" data-anchor-y="0.907895" cx="50" cy="34.5" r="3" />
    <circle class="connection-port" data-connection-side="left" data-anchor-x="0.0454545" data-anchor-y="0.513158" cx="4.5" cy="19.5" r="3" />
  </g>
</svg>