<?xml version='1.0' encoding='utf-8'?>
<svg xmlns="http://www.w3.org/2000/svg" width="58" height="188" viewBox="0 0 58 188" role="img" aria-labelledby="title desc">
  <title id="title">P&amp;ID fixed-bed column</title>
  <desc id="desc">Vertical process column containing two fixed beds.</desc>
  <style id="symbol-theme" type="text/css">/* Edit these values to restyle this symbol. */
.symbol-line {
  stroke: #000000;
  stroke-width: 1;
  stroke-opacity: 1;
}
.symbol-fill {
  fill: #ffffff;
  fill-opacity: 1;
}
.symbol-solid {
  fill: #000000;
  fill-opacity: 1;
}
.symbol-text {
  fill: #000000;
  fill-opacity: 1;
}
.connection-port {
  display: none;
  fill: #ffffff;
  stroke: #2563eb;
  stroke-width: 1.5;
  pointer-events: all;
  cursor: crosshair;
}
</style>
  <g transform="translate(-482 -422)" shape-rendering="geometricPrecision">
    <g>
      <g transform="translate(0.5,0.5)">
        <path d="M 486 441 C 486 432.72 497.19 426 511 426 C 524.81 426 536 432.72 536 441 L 536 591 C 536 599.28 524.81 606 511 606 C 497.19 606 486 599.28 486 591 Z" stroke-miterlimit="10" class="symbol-fill symbol-line" />
        <path d="M 486 462 L 536 462 M 486 510 L 536 510 M 486 462 L 536 510 M 486 510 L 536 462 M 486 522 L 536 522 M 486 570 L 536 570 M 486 522 L 536 570 M 486 570 L 536 522" fill="none" stroke-miterlimit="10" class="symbol-line" />
      </g>
    </g>
  </g>
  <g class="connection-points" data-role="connection-points" aria-hidden="true">
    <circle class="connection-port" data-connection-side="top" data-anchor-x="0.508621" data-anchor-y="0.0239362" cx="29.5" cy="4.5" r="3" />
    <circle class="connection-port" data-connection-side="right" data-anchor-x="0.939655" data-anchor-y="0.50266" cx="54.5" cy="94.5" r="3" />
    <circle class="connection-port" data-connection-side="bottom" data-anchor-x="0.508621" data-anchor-y="0.981383" cx="29.5" cy="184.5" r="3" />
    <circle class="connection-port" data-connection-side="left" data-anchor-x="0.0775862" data-anchor-y="0.50266" cx="4.5" cy="94.5" r="3" />
  </g>
</svg>