<?xml version='1.0' encoding='utf-8'?>
<svg xmlns="http://www.w3.org/2000/svg" width="58" height="128" viewBox="0 0 58 128" role="img" aria-labelledby="title desc">
  <title id="title">P&amp;ID baffle column</title>
  <desc id="desc">Portable baffle column symbol extracted from Vessels&amp;Towers.svg.</desc>
  <style id="symbol-theme" type="text/css">/* Edit these values to restyle this symbol. */
.symbol-line {
  stroke: #000000;
  stroke-width: 1;
  stroke-opacity: 1;
}
.symbol-fill {
  fill: #ffffff;
  fill-opacity: 1;
}
.symbol-solid {
  fill: #000000;
  fill-opacity: 1;
}
.symbol-text {
  fill: #000000;
  fill-opacity: 1;
}
.connection-port {
  display: none;
  fill: #ffffff;
  stroke: #2563eb;
  stroke-width: 1.5;
  pointer-events: all;
  cursor: crosshair;
}
</style>
  <g transform="translate(-32.5 -644.5)" shape-rendering="geometricPrecision">
    <g>
      <g transform="translate(0.5,0.5)">
        <path d="M 36 663 C 36 654.72 47.19 648 61 648 C 74.81 648 86 654.72 86 663 L 86 753 C 86 761.28 74.81 768 61 768 C 47.19 768 36 761.28 36 753 Z" stroke-miterlimit="10" class="symbol-fill symbol-line" />
        <path d="M 36 673 L 86 673 M 36 743 L 86 743" fill="none" stroke-miterlimit="10" stroke-dasharray="3 3" class="symbol-line" />
        <path d="M 36 683 L 81 683 L 81 680 M 41 688 L 41 693 L 86 693 M 36 703 L 81 703 L 81 700 M 41 708 L 41 713 L 86 713 M 36 723 L 81 723 L 81 720 M 41 728 L 41 733 L 86 733" fill="none" stroke-miterlimit="10" stroke-dasharray="3 3" class="symbol-line" />
      </g>
    </g>
  </g>
  <g class="connection-points" data-role="connection-points" aria-hidden="true">
    <circle class="connection-port" data-connection-side="top" data-anchor-x="0.5" data-anchor-y="0.03125" cx="29" cy="4" r="3" />
    <circle class="connection-port" data-connection-side="right" data-anchor-x="0.931034" data-anchor-y="0.5" cx="54" cy="64" r="3" />
    <circle class="connection-port" data-connection-side="bottom" data-anchor-x="0.5" data-anchor-y="0.96875" cx="29" cy="124" r="3" />
    <circle class="connection-port" data-connection-side="left" data-anchor-x="0.0689655" data-anchor-y="0.5" cx="4" cy="64" r="3" />
  </g>
</svg>